<?xml version="1.0" ?><svg enable-background="new 0 0 32 32" id="Filled_Outline" version="1.1" viewBox="0 0 32 32" xml:space="preserve" xmlns="http://www.w3.org/2000/svg" xmlns:xlink="http://www.w3.org/1999/xlink"><title/><desc/><g><g><circle cx="12" cy="12" fill="#F2B035" r="7"/><path d="M14,23c-2.76,0-5-2.24-5-5s2.24-5,5-5c0-3.31,2.69-6,6-6c2.63,0,4.86,1.69,5.67,4.04    c3,0.33,5.33,2.88,5.33,5.96c0,3.31-2.69,6-6,6H14z" fill="#C9F9FB"/></g><g><rect fill="#1A1A1A" height="2" width="2" x="11"/><rect fill="#1A1A1A" height="2" transform="matrix(0.707 -0.7072 0.7072 0.707 -1.3342 4.6371)" width="2" x="3.929" y="2.929"/><rect fill="#1A1A1A" height="2" transform="matrix(0.7071 -0.7071 0.7071 0.7071 2.8078 14.636)" width="2" x="18.071" y="2.929"/><rect fill="#1A1A1A" height="2" transform="matrix(0.7071 -0.7071 0.7071 0.7071 -12.7489 9.364)" width="2" x="3.929" y="19.071"/><rect fill="#1A1A1A" height="2" width="2" y="11"/><path d="M21,26H8v2h13c0.551,0,1,0.448,1,1s-0.449,1-1,1h-1v2h1c1.654,0,3-1.346,3-3S22.654,26,21,26z" fill="#1A1A1A"/><path d="M26.389,10.14C25.272,7.641,22.777,6,20,6c-0.81,0-1.585,0.144-2.309,0.398C16.199,4.884,14.159,4,12,4    c-4.411,0-8,3.589-8,8c0,2.885,1.593,5.545,4.083,6.953C8.542,21.809,11.016,24,14,24h3v-2h-3c-2.206,0-4-1.794-4-4s1.794-4,4-4    c0.552,0,1-0.447,1-1c0-2.757,2.243-5,5-5c2.132,0,4.03,1.353,4.725,3.366c0.126,0.365,0.452,0.626,0.836,0.668    C28.091,12.312,30,14.447,30,17c0,2.757-2.243,5-5,5h-2v2h2c3.86,0,7-3.141,7-7C32,13.634,29.627,10.786,26.389,10.14z     M13.061,12.073c-2.404,0.38-4.32,2.199-4.879,4.539C6.829,15.486,6,13.802,6,12c0-3.309,2.691-6,6-6    c1.413,0,2.759,0.506,3.823,1.387C14.346,8.49,13.315,10.16,13.061,12.073z" fill="#1A1A1A"/><rect fill="#1A1A1A" height="2" width="2" x="19" y="22"/><path d="M25,18h-8v2h8c1.654,0,3-1.346,3-3s-1.346-3-3-3h-1v2h1c0.551,0,1,0.448,1,1S25.551,18,25,18z" fill="#1A1A1A"/><rect fill="#1A1A1A" height="2" width="2" x="13" y="18"/><rect fill="#1A1A1A" height="2" width="2" x="4" y="26"/></g></g></svg>